<svg width="36" height="36" viewBox="0 0 36 36" fill="none" xmlns="http://www.w3.org/2000/svg">
<path d="M20.3442 24.0274L15.3055 21.2789C14.4296 22.215 13.1831 22.8 11.8 22.8C9.14903 22.8 7 20.6509 7 18C7 15.349 9.14903 13.2 11.8 13.2C13.1831 13.2 14.4295 13.785 15.3054 14.721L20.3442 11.9726C20.25 11.5973 20.2 11.2045 20.2 10.8C20.2 8.14903 22.3491 6 25 6C27.6509 6 29.8 8.14903 29.8 10.8C29.8 13.451 27.6509 15.6 25 15.6C23.6169 15.6 22.3704 15.015 21.4944 14.079L16.4557 16.8274C16.55 17.2026 16.6 17.5955 16.6 18C16.6 18.4045 16.55 18.7973 16.4558 19.1725L21.4946 21.921C22.3704 20.985 23.6169 20.4 25 20.4C27.6509 20.4 29.8 22.5491 29.8 25.2C29.8 27.8509 27.6509 30 25 30C22.3491 30 20.2 27.8509 20.2 25.2C20.2 24.7955 20.25 24.4026 20.3442 24.0274ZM11.8 20.4C13.1255 20.4 14.2 19.3255 14.2 18C14.2 16.6745 13.1255 15.6 11.8 15.6C10.4745 15.6 9.4 16.6745 9.4 18C9.4 19.3255 10.4745 20.4 11.8 20.4ZM25 13.2C26.3255 13.2 27.4 12.1255 27.4 10.8C27.4 9.47452 26.3255 8.4 25 8.4C23.6745 8.4 22.6 9.47452 22.6 10.8C22.6 12.1255 23.6745 13.2 25 13.2ZM25 27.6C26.3255 27.6 27.4 26.5255 27.4 25.2C27.4 23.8745 26.3255 22.8 25 22.8C23.6745 22.8 22.6 23.8745 22.6 25.2C22.6 26.5255 23.6745 27.6 25 27.6Z" fill="#EEEFF0"/>
</svg>
